HIERARCHY
ROOT hip
{
	OFFSET 0.000000 0.000000 0.000000 
	CHANNELS 6 Xposition Yposition Zposition Xrotation Zrotation Yrotation
	JOINT abdomen
	{
		OFFSET 0.000000 3.402643 0.000000 
		CHANNELS 3 Xrotation Zrotation Yrotation
		JOINT chest
		{
			OFFSET 0.000000 8.438565 -0.680529 
			CHANNELS 3 Xrotation Zrotation Yrotation
			JOINT neck
			{
				OFFSET 0.000000 10.207942 -0.272212 
				CHANNELS 3 Xrotation Zrotation Yrotation
				JOINT head
				{
					OFFSET 0.000000 3.130431 0.000000 
					CHANNELS 3 Xrotation Zrotation Yrotation
					End Site
					{
						OFFSET 0.000000 3.130435 0.000000 
					}
				}
			}
			JOINT lCollar
			{
				OFFSET 3.470700 6.669187 -0.816635 
				CHANNELS 3 Yrotation Zrotation Xrotation
				JOINT lShldr
				{
					OFFSET 3.198488 0.000000 0.000000 
					CHANNELS 3 Zrotation Yrotation Xrotation
					JOINT lForeArm
					{
						OFFSET 10.139888 0.000000 0.000000 
						CHANNELS 3 Yrotation Zrotation Xrotation
						JOINT lHand
						{
							OFFSET 8.370511 0.000000 0.000000 
							CHANNELS 3 Zrotation Yrotation Xrotation
							End Site
							{
								OFFSET 4.083176 0.000000 0.000000 
							}
						}
					}
				}
			}
			JOINT rCollar
			{
				OFFSET -3.470700 6.669187 -0.816635 
				CHANNELS 3 Yrotation Zrotation Xrotation
				JOINT rShldr
				{
					OFFSET -3.198488 0.000000 0.000000 
					CHANNELS 3 Zrotation Yrotation Xrotation
					JOINT rForeArm
					{
						OFFSET -10.139888 0.000000 0.000000 
						CHANNELS 3 Yrotation Zrotation Xrotation
						JOINT rHand
						{
							OFFSET -8.370511 0.000000 0.000000 
							CHANNELS 3 Zrotation Yrotation Xrotation
							End Site
							{
								OFFSET -4.083176 0.000000 0.000000 
							}
						}
					}
				}
			}
		}
	}
	JOINT lThigh
	{
		OFFSET 5.308129 -1.633274 1.361059 
		CHANNELS 3 Xrotation Zrotation Yrotation
		JOINT lShin
		{
			OFFSET -2.041588 -20.007561 0.000000 
			CHANNELS 3 Xrotation Zrotation Yrotation
			JOINT lFoot
			{
				OFFSET 0.000000 -19.190928 -1.224953 
				CHANNELS 3 Xrotation Yrotation Zrotation
				End Site
				{
					OFFSET 0.000000 -2.449906 4.627600 
				}
			}
		}
	}
	JOINT rThigh
	{
		OFFSET -5.308129 -1.633274 1.361059 
		CHANNELS 3 Xrotation Zrotation Yrotation
		JOINT rShin
		{
			OFFSET 2.041588 -20.007561 0.000000 
			CHANNELS 3 Xrotation Zrotation Yrotation
			JOINT rFoot
			{
				OFFSET 0.000000 -19.190928 -1.224953 
				CHANNELS 3 Xrotation Yrotation Zrotation
				End Site
				{
					OFFSET 0.000000 -2.449906 4.627600 
				}
			}
		}
	}
}
MOTION
Frames: 18
Frame Time: 0.033333
0.824935 52.050869 -0.012000 -3.007812 3.320313 52.910721 36.805702 -12.822850 -3.644100 -2.998047 10.722657 10.058594 51.063168 8.107644 2.471410 -38.417973 13.164062 -18.652348 2.000000 -2.000000 0.000000 -72.373047 -12.861328 12.331809 -50.754013 -1.985038 -2.051842 8.662045 51.016918 11.590637 -2.000000 2.000000 0.000000 79.472656 -1.542969 8.759502 51.250523 1.668519 -1.992359 -39.975430 -66.384277 24.890270 -7.987734 9.081545 0.017931 16.487713 -5.057270 -1.677661 0.440645 10.767431 -10.530768 2.968017 -15.888945 -16.132870 31.149878 3.939376 2.607971 3.716801 -17.299551 8.114268 
1.706855 52.216309 -0.119548 -3.701171 3.320313 53.037674 37.339291 -12.778408 -3.679532 -3.535156 10.781250 9.951174 51.063168 8.107644 2.471410 -38.271484 12.968749 -19.355469 2.000000 -2.000000 0.000000 -72.373047 -12.031250 13.005777 -51.105854 -1.975858 -2.062156 8.341156 49.432060 11.070945 -2.000000 2.000000 0.000000 80.683594 -3.369141 8.789063 51.426563 1.669088 -2.002104 -44.486061 -66.629860 26.982370 -6.869185 8.528180 -0.073970 16.676834 -4.950646 -1.844938 -0.443354 11.174311 -10.120691 0.319506 -17.101160 -17.659065 36.256409 4.058237 2.917085 10.966156 -18.741213 9.709122 
2.605842 52.358112 -0.250621 -4.238281 3.496094 53.173828 37.844856 -12.642894 -3.595085 -4.042968 10.986328 9.943267 51.063168 8.107644 2.471410 -38.105473 12.773437 -20.048830 2.000000 -2.000000 0.000000 -72.158203 -11.191406 13.894589 -51.457966 -1.967246 -2.082215 8.739527 48.585728 10.816313 -2.000000 2.000000 0.000000 81.738281 -5.126953 8.388673 51.602615 1.669657 -2.011850 -47.329258 -66.309372 28.103106 -5.670013 8.197821 -0.005927 17.026850 -4.969875 -1.905624 -1.461143 11.723244 -9.679585 -2.500523 -18.632454 -19.279663 40.996136 3.774217 3.377415 19.376270 -19.906128 11.305304 
3.497133 52.507790 -0.322424 -4.765625 3.671875 53.300781 38.348995 -12.489142 -3.501684 -4.765624 11.064454 9.796797 51.063168 8.107644 2.471410 -38.144531 12.607422 -20.613104 2.000000 -2.000000 0.000000 -71.142578 -11.132813 15.400392 -51.292889 -2.155319 -2.120139 10.299208 48.454006 11.806141 -2.000000 2.000000 0.000000 82.451172 -6.054688 6.981394 52.130283 1.631229 -2.023863 -47.843933 -65.704552 27.206030 -4.535231 7.686292 0.080153 16.827120 -4.731492 -2.218814 -2.171932 11.995765 -9.603205 -5.381073 -19.549147 -20.231741 44.853458 3.530029 3.621607 25.902201 -20.979179 12.878860 
4.311447 52.625965 -0.283867 -5.302734 3.847657 53.604172 38.709114 -12.473186 -3.516543 -5.292968 11.123049 9.523368 51.063168 8.107644 2.471410 -38.154297 12.431640 -20.996094 2.000000 -2.000000 0.000000 -69.814453 -11.083984 17.078203 -50.941021 -2.174250 -2.109257 12.038095 49.137779 12.788269 -2.000000 2.000000 0.000000 82.851563 -6.718750 5.429687 52.822884 1.443722 -1.995655 -47.459690 -65.135948 25.820353 -3.141458 7.522793 -0.256445 16.501814 -4.833648 -1.961692 -2.873366 12.386015 -9.210141 -7.607820 -20.262459 -21.269966 47.163647 3.364258 3.747484 29.915577 -21.515169 13.558056 
5.057733 52.728382 -0.030387 -5.644531 4.023438 53.916702 39.212677 -12.310307 -3.421867 -5.810548 11.337892 9.492188 51.063168 8.107644 2.471410 -38.369144 12.294922 -21.250002 2.000000 -2.000000 0.000000 -68.447266 -11.015624 18.806730 -50.588520 -2.113482 -2.073686 13.618655 50.037582 13.825149 -2.000000 2.000000 0.000000 82.919922 -6.650391 3.846526 53.010700 1.683386 -2.079501 -46.730358 -64.757889 24.831661 -1.883049 7.523750 -0.717053 16.151619 -5.000032 -1.817310 -3.561479 12.235845 -9.027661 -9.638545 -20.374689 -21.622971 47.818081 3.310178 3.621567 29.699903 -20.638845 13.385332 
6.188790 52.822914 1.002137 -6.005859 4.003906 54.414745 39.542564 -12.172487 -3.315780 -6.328125 11.542970 9.453126 51.063168 8.107644 2.471410 -38.583984 11.962891 -21.591797 2.000000 -2.000000 0.000000 -67.412109 -11.005859 18.972744 -50.402142 -2.003968 -2.040959 14.078017 50.903717 14.369055 -2.000000 2.000000 0.000000 83.281250 -6.347656 2.958984 52.998657 1.443722 -1.995655 -45.344631 -65.047646 23.776743 -0.643894 7.681826 -0.853935 15.786263 -4.784135 -2.092518 -4.171157 12.181784 -9.171677 -11.200418 -19.935276 -21.559042 46.947514 3.378655 3.736452 25.365719 -18.857395 12.322278 
6.189844 52.917458 1.201414 -6.191406 4.003906 55.283203 39.663242 -12.120208 -3.064564 -6.845704 11.767578 9.423828 51.063168 8.107644 2.471410 -38.652348 11.455077 -21.689455 2.000000 -2.000000 0.000000 -67.373047 -10.654296 17.675781 -50.049473 -1.893885 -1.998486 13.549935 51.736259 15.264482 -2.000000 2.000000 0.000000 83.437500 -5.927735 1.922819 52.659283 1.752198 -2.085278 -44.315636 -65.462715 23.834824 0.449726 8.271027 -0.958462 15.420135 -4.675597 -2.050726 -4.545443 11.398199 -9.158092 -12.352238 -19.027054 -21.072096 43.595314 3.612707 3.525040 20.261889 -16.067404 10.831008 
6.709507 52.941086 2.023656 -6.347656 4.003906 56.153023 39.816898 -11.976686 -2.945945 -7.177733 12.128906 9.474709 51.063168 8.107644 2.471410 -38.701172 11.113280 -21.923830 2.000000 -2.000000 0.000000 -68.486328 -10.185547 14.910383 -49.874249 -2.012580 -2.020899 12.146286 52.909374 16.257433 -2.000000 2.000000 0.000000 83.330078 -5.429688 1.474609 52.131813 1.820441 -2.081309 -42.017563 -65.980095 22.948864 1.621384 8.786697 -1.748193 14.928193 -5.038142 -1.720728 -5.569789 10.657629 -9.258975 -11.796781 -17.713440 -21.585936 37.619431 3.983733 2.993661 16.784515 -13.490058 9.163666 
7.284449 52.996239 2.962923 -6.542968 4.003906 57.022167 39.410408 -11.934691 -2.667336 -7.470703 12.656250 9.621281 51.063168 8.107644 2.471410 -38.603516 10.400392 -22.547068 2.000000 -2.000000 0.000000 -69.580078 -9.033203 13.701172 -49.874249 -2.012580 -2.020899 10.594847 53.907124 16.224760 -2.000000 2.000000 0.000000 83.642578 -5.800781 1.209952 51.954437 1.670226 -2.021595 -41.050125 -66.655479 22.639317 2.781761 9.730503 -2.157068 14.598035 -5.038610 -1.683534 -5.902653 10.032487 -9.652102 -8.768677 -15.423505 -22.441278 25.656940 4.686433 1.859011 17.002060 -10.625761 7.301802 
7.954500 53.011982 4.010073 -6.708984 4.189453 58.027340 38.781826 -11.850744 -2.112171 -7.734375 13.515625 9.699548 51.063168 8.107644 2.471410 -38.134766 9.824218 -23.632811 2.000000 -2.000000 0.000000 -70.703125 -6.630859 15.058595 -50.050053 -2.002831 -2.021468 10.052724 54.340946 15.455002 -2.000000 2.000000 0.000000 84.003906 -7.304688 1.365946 51.778656 1.670226 -2.021595 -42.768547 -67.408127 23.918047 3.922736 10.469881 -2.783767 14.618126 -5.071003 -1.688694 -6.553732 8.576543 -9.856352 -4.004643 -12.257440 -24.574270 9.289340 5.128609 0.764805 18.515903 -7.460788 4.406125 
8.651696 53.019878 5.114434 -6.708984 4.189453 59.267578 38.010288 -11.668666 -1.705934 -7.822265 14.355470 9.982888 51.063168 8.107644 2.471410 -37.500000 9.228516 -24.695702 2.000000 -2.000000 0.000000 -71.611328 -3.935546 17.011715 -50.577942 -1.994219 -2.041528 10.272038 54.489723 14.876359 -2.000000 2.000000 0.000000 84.189453 -8.974610 2.080078 51.779526 1.779740 -2.054340 -46.216351 -67.850517 27.189148 5.251606 11.448866 -3.326941 14.078582 -5.116259 -1.493062 -7.097896 7.726196 -9.948866 0.584275 -8.942144 -25.755680 -5.292453 5.228993 -0.312318 18.456556 -3.443308 2.681727 
9.339187 52.980473 6.742671 -6.875000 4.179688 60.312504 37.053356 -11.488835 -1.321496 -7.929688 15.019533 10.207609 51.063168 8.107644 2.471410 -37.031246 8.652344 -25.604002 2.000000 -2.000000 0.000000 -72.607422 -1.220703 18.886719 -50.940636 -2.104870 -2.093746 10.321576 55.183720 14.078416 -2.000000 2.000000 0.000000 84.482422 -10.468750 2.429866 51.602600 1.679406 -2.011283 -46.852253 -68.559822 27.355812 6.658919 12.408410 -3.490489 13.554953 -5.097744 -1.418867 -7.578013 6.610105 -9.978433 3.143705 -6.855131 -25.590094 -14.821046 5.112103 -1.110605 14.899408 1.066468 1.973891 
9.918735 52.862309 7.267972 -6.875000 4.179688 61.357426 36.462246 -11.075143 -1.002009 -7.705078 15.322266 10.371093 51.063168 8.107644 2.471410 -37.050781 8.486328 -26.004419 2.000000 -2.000000 0.000000 -73.261719 0.361328 20.312563 -50.754013 -1.985038 -2.051842 9.992719 55.971455 14.839173 -2.000000 2.000000 0.000000 84.501953 -11.240233 1.962891 51.250732 1.698335 -2.000403 -44.660599 -69.028290 26.191378 7.322849 13.462377 -3.879046 14.440930 -5.077456 -1.645584 -8.907035 5.239330 -10.596955 -0.820907 -8.416240 -23.003284 -3.550725 5.223935 -0.137100 12.358047 -2.279090 3.661451 
10.468646 52.696873 8.185900 -6.875000 4.179688 62.412109 36.126453 -10.259563 -1.030937 -6.865234 14.726564 10.061076 51.063168 8.107644 2.471410 -37.226563 8.496094 -25.498047 2.000000 -2.000000 0.000000 -73.603516 1.298828 21.035156 -50.225254 -1.893885 -1.998486 10.045365 57.046398 15.703701 -2.000000 2.000000 0.000000 84.248047 -10.800781 1.306764 50.908409 1.697198 -1.980912 -39.103226 -69.364349 21.897854 7.489601 14.391358 -4.288899 15.827855 -5.019077 -1.812413 -10.129681 4.356399 -11.105500 -3.846994 -9.300181 -18.572723 2.549085 5.234062 0.382777 12.327634 -6.587659 5.814546 
11.053230 52.586571 8.929070 -7.060547 4.179688 63.457035 35.817696 -9.108123 -1.285934 -5.732422 13.613280 9.765625 51.063168 8.107644 2.471410 -38.066410 8.945313 -24.492189 2.000000 -2.000000 0.000000 -74.121094 1.962891 20.292969 -50.226078 -2.013148 -2.030645 10.368275 57.909336 16.239870 -2.000000 2.000000 0.000000 83.203125 -9.423829 1.748047 50.732628 1.697198 -1.980912 -36.424778 -68.783981 20.202196 7.783249 15.018497 -4.367539 16.728613 -5.068462 -1.728660 -10.476674 3.630941 -10.049777 -5.145465 -9.243628 -15.874504 6.077717 5.170171 0.665603 13.688197 -9.552818 7.585129 
11.354881 52.649601 9.494480 -7.060547 4.179688 64.326172 35.895298 -8.116116 -1.646719 -4.599609 12.500000 9.435707 51.063168 8.107644 2.471410 -38.984379 10.263672 -23.359377 2.000000 -2.000000 0.000000 -75.312500 2.500000 18.652346 -50.402161 -1.994219 -2.041528 10.823683 58.021774 15.509700 -2.000000 2.000000 0.000000 81.582031 -7.167968 2.996830 50.908409 1.697198 -1.980912 -36.926090 -66.418022 20.789682 7.488883 15.737724 -4.164764 18.493725 -5.009242 -1.847675 -8.783384 3.191768 -8.164444 -4.423329 -9.049544 -16.451384 7.153795 5.162592 0.618146 12.449615 -9.254818 8.316686 
11.339005 52.752014 10.013497 -6.875000 4.179688 65.224609 35.754917 -7.421959 -1.799319 -3.935546 11.943361 9.171943 51.063168 8.107644 2.471410 -39.638676 12.275390 -22.460941 2.000000 -2.000000 0.000000 -77.138672 3.261719 17.314455 -50.929794 -1.985038 -2.051841 11.155857 58.113476 13.815281 -2.000000 2.000000 0.000000 79.687500 -4.726562 4.344900 51.426563 1.669088 -2.002104 -37.961491 -62.732166 22.029545 6.482935 16.450573 -3.866106 20.616827 -4.871617 -2.197610 -6.188610 2.839891 -5.911328 -3.290746 -8.560056 -18.424454 7.672708 5.163873 0.826922 11.568919 -7.725776 8.073823 
